<svg width="24" height="24" viewBox="0 0 24 24" fill="none" xmlns="http://www.w3.org/2000/svg">
  <path d="M9.5 3.5C9.5 4.33 9.33 5.13 9.03 5.86C8.73 6.6 8.3 7.24 7.76 7.78C7.22 8.32 6.58 8.75 5.85 9.05C5.12 9.35 4.32 9.5 3.5 9.5C2.67 9.5 1.87 9.35 1.14 9.05C0.41 8.75 -0.23 8.32 -0.77 7.78C-1.31 7.24 -1.74 6.6 -2.04 5.86C-2.34 5.13 -2.5 4.33 -2.5 3.5C-2.5 2.67 -2.34 1.87 -2.04 1.14C-1.74 0.41 -1.31 -0.23 -0.77 -0.77C-0.23 -1.31 0.41 -1.74 1.14 -2.04C1.87 -2.34 2.67 -2.5 3.5 -2.5C4.32 -2.5 5.12 -2.34 5.85 -2.04C6.58 -1.74 7.22 -1.31 7.76 -0.77C8.3 -0.23 8.73 0.41 9.03 1.14C9.33 1.87 9.5 2.67 9.5 3.5Z" fill="#808080"/>
  <path d="M20.5 3.5C20.5 4.33 20.33 5.13 20.03 5.86C19.73 6.6 19.3 7.24 18.76 7.78C18.22 8.32 17.58 8.75 16.85 9.05C16.12 9.35 15.32 9.5 14.5 9.5C13.67 9.5 12.87 9.35 12.14 9.05C11.41 8.75 10.77 8.32 10.23 7.78C9.69 7.24 9.26 6.6 8.96 5.86C8.66 5.13 8.5 4.33 8.5 3.5C8.5 2.67 8.66 1.87 8.96 1.14C9.26 0.41 9.69 -0.23 10.23 -0.77C10.77 -1.31 11.41 -1.74 12.14 -2.04C12.87 -2.34 13.67 -2.5 14.5 -2.5C15.32 -2.5 16.12 -2.34 16.85 -2.04C17.58 -1.74 18.22 -1.31 18.76 -0.77C19.3 -0.23 19.73 0.41 20.03 1.14C20.33 1.87 20.5 2.67 20.5 3.5Z" fill="#808080"/>
  <path d="M15 14.5C15 15.33 14.83 16.13 14.53 16.86C14.23 17.6 13.8 18.24 13.26 18.78C12.72 19.32 12.08 19.75 11.35 20.05C10.62 20.35 9.82 20.5 9 20.5C8.17 20.5 7.37 20.35 6.64 20.05C5.91 19.75 5.27 19.32 4.73 18.78C4.19 18.24 3.76 17.6 3.46 16.86C3.16 16.13 3 15.33 3 14.5C3 13.67 3.16 12.87 3.46 12.14C3.76 11.41 4.19 10.77 4.73 10.23C5.27 9.69 5.91 9.26 6.64 8.96C7.37 8.66 8.17 8.5 9 8.5C9.82 8.5 10.62 8.66 11.35 8.96C12.08 9.26 12.72 9.69 13.26 10.23C13.8 10.77 14.23 11.41 14.53 12.14C14.83 12.87 15 13.67 15 14.5Z" fill="#808080"/>
</svg> 